<?xml version="1.0" encoding="UTF-8" standalone="no"?><!DOCTYPE svg PUBLIC "-//W3C//DTD SVG 1.1//EN" "http://www.w3.org/Graphics/SVG/1.1/DTD/svg11.dtd"><svg width="100%" height="48" viewBox="0 0 1737 1786" version="1.1" xmlns="http://www.w3.org/2000/svg" xmlns:xlink="http://www.w3.org/1999/xlink" xml:space="preserve" xmlns:serif="http://www.serif.com/" style="fill-rule:evenodd;clip-rule:evenodd;stroke-linejoin:round;stroke-miterlimit:2;"><path d="M547.903,1679.194c-4.715,2.299 -41.968,20.407 -57.883,26.294c-17.006,6.29 -11.796,-11.891 -42.456,-63.683c-23.773,-40.159 -228.199,143.288 -228.199,143.288l121.976,-127.279c39.458,-46.044 78.412,-98.179 112.066,-153.311c7.343,-12.03 14.643,-17.247 17.547,-3.116c12.639,61.504 12.589,98.315 36.642,82.93c23.817,-15.233 142.377,-81.505 280.532,-264.85c198.6,-263.56 176.608,-374.844 170.638,-502.901c-2.149,-46.087 104.565,-133.378 178.793,-219.517c21.559,-25.018 -17.889,-31.035 -65.777,-52.495c-57.347,-25.698 -119.879,-99.907 -74.906,-89.211c189.848,45.154 273.071,-46.027 403.29,-55.472c66.941,4.503 64.899,12.901 118.016,48.643c42.456,28.568 143.694,-22.948 209.53,82.426c31.862,50.998 -26.61,22.306 -99.781,56.537c-253.439,118.566 -222.142,345.117 -351.775,652.734c-75.703,179.642 -263.933,330.404 -412.23,386.436c-7.506,2.836 -17.107,-3.496 -5.301,-14.193c58.44,-52.95 57.878,-52.807 110.591,-112.151c54.304,-61.135 162.278,-306.184 149.022,-316.867c-18.98,-15.296 -6.54,16.726 -92.739,144.002c-109.979,162.389 -306.755,277.327 -477.6,351.757Zm-405.263,-1674.431l4.838,-1.472c1.534,1.113 3.207,-4.251 4.741,-3.137c12.464,9.047 13.336,204.232 248.619,378.233c330.533,244.441 527.045,319.844 492.669,671.416c-10.237,104.696 -126.03,272.19 -199.231,345.162c-25.48,25.4 -63.436,67.162 -69.03,42.561c-4.766,-20.959 -38.201,-167.998 -84.052,-255.185c-58.869,-111.941 -205.232,-121.716 -317.961,-187.65c-115.767,-67.711 -196.357,-235.625 -171.04,-236.781c35.621,-1.627 7.931,63.678 297.333,148.437c134.521,39.398 201.644,78.5 156.552,34.613c-92.417,-89.948 -369.209,-133.002 -470.339,-378.909c-37.986,-92.366 -46.184,-269.134 -22.226,-227.271c33.909,59.251 38.104,159.616 324.417,313.515c188.624,101.39 249.87,163.873 266.264,174.377c7.897,-0.864 8.414,-0.251 8.497,-0.93c0.233,-1.914 -2.633,-3.349 -2.4,-5.263c-98.887,-125.282 -277.785,-226.916 -375.837,-320.476c-187.027,-178.459 -123.662,-367.066 -91.814,-491.239Z" style="fill:url(#_Linear1);"/><defs><linearGradient id="_Linear1" x1="0" y1="0" x2="1" y2="0" gradientUnits="userSpaceOnUse" gradientTransform="matrix(1237.5,954.166667,-954.166667,1237.5,49.367551,340.350761)"><stop offset="0" style="stop-color:#38e3c7;stop-opacity:1"/><stop offset="1" style="stop-color:#11c9f2;stop-opacity:1"/></linearGradient></defs></svg>