<?xml version="1.0" encoding="UTF-8" standalone="no"?>
<!DOCTYPE svg PUBLIC "-//W3C//DTD SVG 1.1//EN" "http://www.w3.org/Graphics/SVG/1.1/DTD/svg11.dtd">
<svg width="100%" height="100%" viewBox="0 0 894 284" version="1.1" xmlns="http://www.w3.org/2000/svg" xmlns:xlink="http://www.w3.org/1999/xlink" xml:space="preserve" xmlns:serif="http://www.serif.com/" style="fill-rule:evenodd;clip-rule:evenodd;stroke-linejoin:round;stroke-miterlimit:2;">
    <g transform="matrix(1,0,0,1,-193.10573,-197.288994)">
        <g transform="matrix(0.842594,0,0,0.842594,62.7863,164.738206)">
            <path d="M257.907,355.045C257.019,355.479 249.999,358.891 247,360C243.795,361.185 244.777,357.759 239,348C234.52,340.433 196,375 196,375L218.984,351.017C226.419,342.34 233.76,332.517 240.101,322.128C241.485,319.861 242.86,318.878 243.407,321.541C245.789,333.13 245.78,340.066 250.312,337.167C254.8,334.297 277.14,321.809 303.173,287.261C340.596,237.598 336.452,216.629 335.327,192.498C334.922,183.814 355.03,167.366 369.017,151.134C373.08,146.42 365.647,145.286 356.623,141.243C345.817,136.4 334.034,122.417 342.508,124.433C378.282,132.941 393.963,115.76 418.501,113.98C431.115,114.828 430.73,116.411 440.739,123.146C448.739,128.529 467.815,118.822 480.221,138.677C486.225,148.287 475.207,142.881 461.419,149.331C413.663,171.672 419.56,214.362 395.134,272.327C380.869,306.177 345.4,334.585 317.456,345.144C316.042,345.678 314.233,344.485 316.458,342.469C327.47,332.492 327.364,332.519 337.296,321.336C347.529,309.817 367.875,263.642 365.377,261.629C361.801,258.746 364.145,264.78 347.902,288.763C327.179,319.363 290.1,341.02 257.907,355.045ZM181.542,39.529L182.454,39.252C182.743,39.461 183.058,38.451 183.347,38.66C185.696,40.365 185.86,77.144 230.195,109.932C292.478,155.992 329.507,170.2 323.03,236.448C321.101,256.176 299.282,287.737 285.488,301.487C280.687,306.274 273.535,314.143 272.481,309.507C271.583,305.558 265.282,277.851 256.643,261.422C245.55,240.329 217.97,238.487 196.728,226.063C174.914,213.304 159.728,181.664 164.499,181.446C171.211,181.139 165.994,193.445 220.526,209.416C245.874,216.84 258.522,224.208 250.026,215.938C232.611,198.989 180.455,190.877 161.399,144.54C154.241,127.135 152.696,93.826 157.211,101.715C163.6,112.879 164.391,131.791 218.341,160.791C253.884,179.896 265.425,191.67 268.514,193.649C270.002,193.486 270.1,193.602 270.115,193.474C270.159,193.113 269.619,192.843 269.663,192.482C251.029,168.875 217.319,149.724 198.843,132.094C163.601,98.467 175.541,62.927 181.542,39.529ZM519.074,361.952L519.074,122.606L667.544,122.606L667.544,153.648L555.258,153.648L555.258,226.572L656.886,226.572L656.886,257.613L555.258,257.613L555.258,361.952L519.074,361.952ZM709.149,361.952L709.149,182.443L744.116,182.443L744.116,361.952L709.149,361.952ZM726.831,154.769C720.778,154.769 715.585,152.727 711.253,148.644C706.921,144.561 704.755,139.653 704.755,133.919C704.755,128.185 706.922,123.277 711.256,119.194C715.59,115.112 720.778,113.071 726.82,113.071C732.881,113.071 738.074,115.112 742.398,119.195C746.722,123.278 748.884,128.187 748.884,133.921C748.884,139.654 746.722,144.563 742.398,148.645C738.074,152.728 732.885,154.769 726.831,154.769ZM826.018,255.369L826.018,361.952L791.05,361.952L791.05,182.443L824.615,182.443L824.615,211.707L826.859,211.707C831.005,202.139 837.491,194.48 846.318,188.73C855.145,182.98 866.298,180.105 879.777,180.105C892.041,180.105 902.758,182.665 911.928,187.784C921.097,192.903 928.226,200.48 933.314,210.515C938.402,220.55 940.939,232.977 940.923,247.796L940.923,361.952L905.955,361.952L905.955,252.003C905.971,238.946 902.594,228.747 895.824,221.407C889.053,214.068 879.747,210.398 867.904,210.398C859.801,210.398 852.598,212.155 846.295,215.669C839.992,219.183 835.041,224.294 831.441,231.002C827.841,237.709 826.033,245.832 826.018,255.369ZM987.67,361.952L987.67,182.443L1022.637,182.443L1022.637,361.952L987.67,361.952ZM1005.351,154.769C999.299,154.769 994.106,152.727 989.774,148.644C985.442,144.561 983.276,139.653 983.276,133.919C983.276,128.185 985.443,123.277 989.777,119.194C994.111,115.112 999.299,113.071 1005.34,113.071C1011.402,113.071 1016.594,115.112 1020.919,119.195C1025.243,123.278 1027.405,128.187 1027.405,133.921C1027.405,139.654 1025.243,144.563 1020.919,148.645C1016.594,152.728 1011.405,154.769 1005.351,154.769ZM1097.152,182.443L1136.794,252.283L1176.715,182.443L1214.955,182.443L1158.953,272.198L1215.423,361.952L1177.278,361.952L1136.794,294.823L1096.498,361.952L1058.165,361.952L1113.981,272.198L1058.819,182.443L1097.152,182.443Z" style="fill:url(#_Linear1);"/>
        </g>
    </g>
    <defs>
        <linearGradient id="_Linear1" x1="0" y1="0" x2="1" y2="0" gradientUnits="userSpaceOnUse" gradientTransform="matrix(1044.393694,267.032479,-267.032479,1044.393694,164.033542,95.255582)"><stop offset="0" style="stop-color:rgb(56,227,199);stop-opacity:1"/><stop offset="1" style="stop-color:rgb(17,201,242);stop-opacity:1"/></linearGradient>
    </defs>
</svg>
